# xmcd
#
# Track frame offsets: 
#        150
#        4885
#        20917
#        36037
#        55059
#        63175
#        76907
#        97058
#        114117
#        162566
#        221301
#        242882
#        266994
#
# Disc length: 3880 seconds
#
# Revision: 0
# Processed by: cddbd v1.5.2PL0 Copyright (c) Steve Scherf et al.
# Submitted via: ExactAudioCopyFreeDBPlugin 1.0
#
DISCID=ad0f260d
DTITLE=Boston Musica Viva unter Richard Pittman - Sopran: Jane Manning
DTITLE=Various Artist - Schlagzeug: Dean Anderson - Piano: Hugh Hinton etc. - Kraft:
DTITLE=Settings from Pierrot Lunaire, etc.
DYEAR=1997
DGENRE=Classical
TTITLE0=Kraft, William - Settings from Pierrot Lunaire (1987-1990) - 1
TTITLE0=Prelude
TTITLE1=Kraft, William - Settings from Pierrot Lunaire (1987-1990) - 2
TTITLE1=Feerie 
TTITLE2=Kraft, William - Settings from Pierrot Lunaire (1987-1990) - 3
TTITLE2=Interlude I
TTITLE3=Kraft, William - Settings from Pierrot Lunaire (1987-1990) - 4
TTITLE3=Mein Bruder 
TTITLE4=Kraft, William - Settings from Pierrot Lunaire (1987-1990) - 5
TTITLE4=Interlude II 
TTITLE5=Kraft, William - Settings from Pierrot Lunaire (1987-1990) - 6
TTITLE5=Harlequinade 
TTITLE6=Kraft, William - Settings from Pierrot Lunaire (1987-1990) - 7
TTITLE6=Fantasmagoria 
TTITLE7=Kraft, William - Settings from Pierrot Lunaire (1987-1990) - 8
TTITLE7=Selbstmord 
TTITLE8=Kraft, William - Concerto for Percussion and Chamber Ensemble
TTITLE9=Kraft, William - Episodes
TTITLE10=Kraft, William - Gallery 4-5 - 1. In Gray
TTITLE11=Kraft, William - Gallery 4-5 - 2. Rothko Chapel 
TTITLE12=Kraft, William - Gallery 4-5 - 3. Painting With White Border 
EXTD=
EXTT0=
EXTT1=
EXTT2=
EXTT3=
EXTT4=
EXTT5=
EXTT6=
EXTT7=
EXTT8=
EXTT9=
EXTT10=
EXTT11=
EXTT12=
PLAYORDER=
